<svg width="110" height="19" viewBox="0 0 110 19" fill="none" xmlns="http://www.w3.org/2000/svg">
<path d="M100 15.27L106.18 19L104.54 11.97L110 7.24L102.81 6.63L100 0L97.19 6.63L90 7.24L95.46 11.97L93.82 19L100 15.27Z" fill="#FFC700"/>
<path d="M70 15.27L76.18 19L74.54 11.97L80 7.24L72.81 6.63L70 0L67.19 6.63L60 7.24L65.46 11.97L63.82 19L70 15.27Z" fill="#FFC700"/>
<path d="M40 15.27L46.18 19L44.54 11.97L50 7.24L42.81 6.63L40 0L37.19 6.63L30 7.24L35.46 11.97L33.82 19L40 15.27Z" fill="#FFC700"/>
<path d="M10 15.27L16.18 19L14.54 11.97L20 7.24L12.81 6.63L10 0L7.19 6.63L0 7.24L5.46 11.97L3.82 19L10 15.27Z" fill="#FFC700"/>
</svg>
