<svg width="136" height="19" viewBox="0 0 136 19" fill="none" xmlns="http://www.w3.org/2000/svg">
<path d="M100 15.27L106.18 19L104.54 11.97L110 7.24L102.81 6.63L100 0L97.19 6.63L90 7.24L95.46 11.97L93.82 19L100 15.27Z" fill="#FFC700"/>
<path d="M70 15.27L76.18 19L74.54 11.97L80 7.24L72.81 6.63L70 0L67.19 6.63L60 7.24L65.46 11.97L63.82 19L70 15.27Z" fill="#FFC700"/>
<path d="M126 15.27L132.18 19L130.54 11.97L136 7.24L128.81 6.63L126 0L123.19 6.63L116 7.24L121.46 11.97L119.82 19L126 15.27Z" fill="url(#paint0_linear_71_142)"/>
<path d="M40 15.27L46.18 19L44.54 11.97L50 7.24L42.81 6.63L40 0L37.19 6.63L30 7.24L35.46 11.97L33.82 19L40 15.27Z" fill="#FFC700"/>
<path d="M10 15.27L16.18 19L14.54 11.97L20 7.24L12.81 6.63L10 0L7.19 6.63L0 7.24L5.46 11.97L3.82 19L10 15.27Z" fill="#FFC700"/>
<defs>
<linearGradient id="paint0_linear_71_142" x1="118.5" y1="10" x2="128.5" y2="10" gradientUnits="userSpaceOnUse">
<stop stop-color="#FFC700"/>
<stop offset="0.6" stop-color="#FFC700"/>
<stop offset="0.65" stop-color="white"/>
<stop offset="0.68" stop-color="white"/>
<stop offset="0.72" stop-color="white"/>
<stop offset="0.78" stop-color="white"/>
<stop offset="0.82" stop-color="white"/>
<stop offset="0.875" stop-color="white"/>
<stop offset="1" stop-color="white"/>
</linearGradient>
</defs>
</svg>
