<svg width="32" height="32" viewBox="0 0 32 32" fill="none" xmlns="http://www.w3.org/2000/svg">
<path d="M29.3337 9.33329C29.3337 5.65139 26.3489 2.66663 22.667 2.66663H16.0003H9.33366C5.65176 2.66663 2.66699 5.65139 2.66699 9.33329V22.6666C2.66699 26.3485 5.65176 29.3333 9.33366 29.3333H22.667C26.3489 29.3333 29.3337 26.3485 29.3337 22.6666V9.33329Z" stroke="#05182A" stroke-opacity="0.9" stroke-width="2" stroke-linecap="round" stroke-linejoin="round"/>
<path d="M20.7919 18.3987C21.3086 17.403 21.4981 16.2697 21.3336 15.16C21.1657 14.0281 20.6383 12.9802 19.8292 12.1711C19.0201 11.362 17.9722 10.8345 16.8403 10.6667C15.7306 10.5022 14.5973 10.6917 13.6016 11.2084C12.6058 11.725 11.7984 12.5425 11.294 13.5445C10.7897 14.5466 10.6141 15.6821 10.7924 16.7897C10.9706 17.8972 11.4935 18.9204 12.2867 19.7136C13.0799 20.5068 14.1031 21.0297 15.2106 21.2079C16.3182 21.3862 17.4537 21.2106 18.4558 20.7063C19.4578 20.2019 20.2753 19.3945 20.7919 18.3987Z" stroke="#05182A" stroke-opacity="0.9" stroke-width="2" stroke-linecap="round" stroke-linejoin="round"/>
<path d="M23.333 8.66663H23.3463" stroke="#05182A" stroke-opacity="0.9" stroke-width="2" stroke-linecap="round" stroke-linejoin="round"/>
</svg>
