<svg width="32" height="32" viewBox="0 0 32 32" fill="none" xmlns="http://www.w3.org/2000/svg">
<path d="M29.3329 26.56V22.56C29.3491 21.9061 29.1245 21.269 28.7016 20.77C28.2788 20.2709 27.6873 19.9447 27.0396 19.8533C25.7595 19.6845 24.5026 19.3714 23.2929 18.92C22.8157 18.7406 22.297 18.7018 21.7984 18.8081C21.2998 18.9144 20.8421 19.1615 20.4796 19.52L18.7863 21.2133C15.4482 19.3152 12.6843 16.5514 10.7863 13.2133L12.4796 11.52C12.8381 11.1574 13.0851 10.6998 13.1915 10.2011C13.2978 9.70252 13.259 9.18387 13.0796 8.70663C12.6282 7.49694 12.3151 6.24006 12.1463 4.95997C12.0557 4.31923 11.7352 3.73328 11.2446 3.31134C10.754 2.8894 10.1267 2.66026 9.47959 2.66663H5.47959C5.10937 2.66698 4.74329 2.74441 4.40464 2.894C4.06599 3.04358 3.7622 3.26204 3.51261 3.53546C3.26301 3.80889 3.07309 4.13128 2.95492 4.48213C2.83675 4.83298 2.79293 5.20459 2.82625 5.5733C3.26391 9.69463 4.66622 13.6549 6.91959 17.1333C8.9667 20.3549 11.698 23.0862 14.9196 25.1333C18.3823 27.3788 22.3234 28.7808 26.4263 29.2266C26.7961 29.2601 27.1688 29.2159 27.5206 29.0969C27.8724 28.9779 28.1954 28.7868 28.469 28.5358C28.7427 28.2848 28.9608 27.9793 29.1096 27.6391C29.2584 27.2989 29.3344 26.9313 29.3329 26.56Z" stroke="#05182A" stroke-opacity="0.9" stroke-width="2" stroke-linecap="round" stroke-linejoin="round"/>
</svg>
