<svg width="32" height="32" viewBox="0 0 32 32" fill="none" xmlns="http://www.w3.org/2000/svg">
<path d="M26.4797 6.03998C27.9758 5.58946 29.3895 4.90062 30.6663 3.99998C30.2141 5.85693 29.2538 7.5513 27.893 8.89331C27.9627 9.25811 27.9984 9.62858 27.9997 9.99998C27.9997 25.3333 13.333 32 1.33301 25.3333C4.64922 25.4652 7.92038 24.5306 10.6663 22.6666C-1.33366 17.3333 3.99967 5.33331 3.99967 5.33331C5.34676 7.25149 7.14733 8.80675 9.24102 9.86057C11.3347 10.9144 13.6565 11.4341 15.9997 11.3733V10.04C15.9833 8.81643 16.343 7.61736 17.0303 6.60494C17.7176 5.59251 18.6992 4.81559 19.8424 4.37925C20.9857 3.94291 22.2353 3.86819 23.4224 4.16521C24.6095 4.46224 25.6767 5.11666 26.4797 6.03998Z" stroke="#05182A" stroke-opacity="0.9" stroke-width="2" stroke-linecap="round" stroke-linejoin="round"/>
</svg>
