<svg width="32" height="32" viewBox="0 0 32 32" fill="none" xmlns="http://www.w3.org/2000/svg">
<path d="M29.3333 9.33329C29.3333 5.65139 26.3486 2.66663 22.6667 2.66663H16H9.33334C5.65144 2.66663 2.66667 5.65139 2.66667 9.33329V22.6666C2.66667 26.3485 5.65144 29.3333 9.33334 29.3333H22.6667C26.3486 29.3333 29.3333 26.3485 29.3333 22.6666V9.33329Z" stroke="white" stroke-width="2" stroke-linecap="round" stroke-linejoin="round"/>
<path d="M20.7917 18.3987C21.3083 17.403 21.4979 16.2697 21.3333 15.16C21.1655 14.0281 20.6381 12.9802 19.8289 12.1711C19.0198 11.362 17.9719 10.8345 16.84 10.6667C15.7303 10.5022 14.597 10.6917 13.6013 11.2084C12.6056 11.725 11.7981 12.5425 11.2938 13.5445C10.7894 14.5466 10.6139 15.6821 10.7921 16.7897C10.9703 17.8972 11.4932 18.9204 12.2865 19.7136C13.0797 20.5068 14.1028 21.0297 15.2104 21.2079C16.3179 21.3862 17.4535 21.2106 18.4555 20.7063C19.4575 20.2019 20.275 19.3945 20.7917 18.3987Z" stroke="white" stroke-width="2" stroke-linecap="round" stroke-linejoin="round"/>
<path d="M23.3333 8.66663H23.3467" stroke="white" stroke-width="2" stroke-linecap="round" stroke-linejoin="round"/>
</svg>
