<svg width="32" height="32" viewBox="0 0 32 32" fill="none" xmlns="http://www.w3.org/2000/svg">
<path d="M29.3333 26.56V22.56C29.3496 21.9061 29.1249 21.269 28.702 20.77C28.2792 20.2709 27.6877 19.9447 27.04 19.8533C25.7599 19.6845 24.503 19.3714 23.2933 18.92C22.8161 18.7406 22.2974 18.7018 21.7988 18.8081C21.3002 18.9144 20.8425 19.1615 20.48 19.52L18.7867 21.2133C15.4486 19.3152 12.6847 16.5514 10.7867 13.2133L12.48 11.52C12.8385 11.1574 13.0855 10.6998 13.1919 10.2011C13.2982 9.70252 13.2594 9.18387 13.08 8.70663C12.6286 7.49694 12.3155 6.24006 12.1467 4.95997C12.0561 4.31923 11.7356 3.73328 11.245 3.31134C10.7544 2.8894 10.1271 2.66026 9.48 2.66663H5.48C5.10978 2.66698 4.7437 2.74441 4.40505 2.894C4.0664 3.04358 3.76261 3.26204 3.51302 3.53546C3.26343 3.80889 3.0735 4.13128 2.95533 4.48213C2.83716 4.83298 2.79334 5.20459 2.82666 5.5733C3.26432 9.69463 4.66663 13.6549 6.92 17.1333C8.96711 20.3549 11.6984 23.0862 14.92 25.1333C18.3827 27.3788 22.3238 28.7808 26.4267 29.2266C26.7965 29.2601 27.1692 29.2159 27.521 29.0969C27.8728 28.9779 28.1958 28.7868 28.4694 28.5358C28.7431 28.2848 28.9612 27.9793 29.11 27.6391C29.2588 27.2989 29.3348 26.9313 29.3333 26.56Z" stroke="white" stroke-width="2" stroke-linecap="round" stroke-linejoin="round"/>
</svg>
