<svg width="24" height="24" viewBox="0 0 24 24" fill="none" xmlns="http://www.w3.org/2000/svg">
<g clip-path="url(#clip0_2_91)">
<path d="M11.7058 15.2808C11.8812 15.1532 12.1188 15.1532 12.2942 15.2808L15.6993 17.7589C16.0912 18.0441 16.619 17.6607 16.4689 17.1998L15.1671 13.2026C15.0994 12.9948 15.1745 12.7671 15.3526 12.6404L18.7249 10.2408C19.1215 9.95848 18.9218 9.33337 18.435 9.33337H14.2975C14.0805 9.33337 13.8882 9.19332 13.8216 8.98672L12.4759 4.81032C12.327 4.34811 11.673 4.34811 11.5241 4.81032L10.1784 8.98672C10.1118 9.19332 9.91953 9.33337 9.70246 9.33337H5.56504C5.07817 9.33337 4.87846 9.95848 5.27515 10.2408L8.64739 12.6404C8.82546 12.7671 8.9006 12.9948 8.83292 13.2026L7.53109 17.1998C7.38098 17.6607 7.90879 18.0441 8.30073 17.7589L11.7058 15.2808Z" fill="#05182A" fill-opacity="0.9"/>
</g>
<defs>
<clipPath id="clip0_2_91">
<rect width="24" height="24" fill="white"/>
</clipPath>
</defs>
</svg>
