<svg width="32" height="32" viewBox="0 0 32 32" fill="none" xmlns="http://www.w3.org/2000/svg">
<path d="M26.48 6.03998C27.9761 5.58946 29.3898 4.90062 30.6667 3.99998C30.2144 5.85693 29.2541 7.5513 27.8933 8.89331C27.9631 9.25811 27.9988 9.62858 28 9.99998C28 25.3333 13.3333 32 1.33333 25.3333C4.64954 25.4652 7.9207 24.5306 10.6667 22.6666C-1.33333 17.3333 4 5.33331 4 5.33331C5.34709 7.25149 7.14766 8.80675 9.24134 9.86057C11.335 10.9144 13.6568 11.4341 16 11.3733V10.04C15.9836 8.81643 16.3434 7.61736 17.0306 6.60494C17.7179 5.59251 18.6996 4.81559 19.8428 4.37925C20.986 3.94291 22.2356 3.86819 23.4227 4.16521C24.6098 4.46224 25.677 5.11666 26.48 6.03998Z" stroke="white" stroke-width="2" stroke-linecap="round" stroke-linejoin="round"/>
</svg>
