<svg width="32" height="32" viewBox="0 0 32 32" fill="none" xmlns="http://www.w3.org/2000/svg">
<path d="M29.3334 9.33342C29.3334 5.65152 26.3486 2.66675 22.6667 2.66675H16.0001H9.33342C5.65152 2.66675 2.66675 5.65152 2.66675 9.33342V22.6667C2.66675 26.3486 5.65152 29.3334 9.33342 29.3334H22.6667C26.3486 29.3334 29.3334 26.3486 29.3334 22.6667V9.33342Z" stroke="#05182A" stroke-opacity="0.9" stroke-width="2" stroke-linecap="round" stroke-linejoin="round"/>
<path d="M20.7917 18.3986C21.3084 17.4029 21.4979 16.2696 21.3334 15.1599C21.1655 14.028 20.6381 12.9801 19.8289 12.171C19.0198 11.3619 17.9719 10.8344 16.84 10.6666C15.7304 10.502 14.5971 10.6916 13.6013 11.2082C12.6056 11.7249 11.7981 12.5424 11.2938 13.5444C10.7894 14.5464 10.6139 15.682 10.7921 16.7895C10.9703 17.8971 11.4932 18.9202 12.2865 19.7135C13.0797 20.5067 14.1028 21.0296 15.2104 21.2078C16.3179 21.386 17.4535 21.2105 18.4555 20.7061C19.4575 20.2018 20.275 19.3943 20.7917 18.3986Z" stroke="#05182A" stroke-opacity="0.9" stroke-width="2" stroke-linecap="round" stroke-linejoin="round"/>
<path d="M23.3333 8.66675H23.3466" stroke="#05182A" stroke-opacity="0.9" stroke-width="2" stroke-linecap="round" stroke-linejoin="round"/>
</svg>
