<svg width="32" height="32" viewBox="0 0 32 32" fill="none" xmlns="http://www.w3.org/2000/svg">
<path d="M29.3334 26.56V22.56C29.3496 21.9061 29.125 21.269 28.7021 20.77C28.2793 20.2709 27.6878 19.9447 27.0401 19.8533C25.76 19.6845 24.5031 19.3714 23.2934 18.92C22.8162 18.7406 22.2975 18.7018 21.7989 18.8081C21.3003 18.9144 20.8426 19.1615 20.4801 19.52L18.7867 21.2133C15.4487 19.3152 12.6848 16.5514 10.7867 13.2133L12.4801 11.52C12.8386 11.1574 13.0856 10.6998 13.1919 10.2011C13.2983 9.70252 13.2595 9.18387 13.0801 8.70663C12.6287 7.49694 12.3156 6.24006 12.1467 4.95997C12.0562 4.31923 11.7357 3.73328 11.2451 3.31134C10.7545 2.8894 10.1271 2.66026 9.48007 2.66663H5.48007C5.10986 2.66698 4.74378 2.74441 4.40513 2.894C4.06648 3.04358 3.76269 3.26204 3.51309 3.53546C3.2635 3.80889 3.07357 4.13128 2.95541 4.48213C2.83724 4.83298 2.79342 5.20459 2.82674 5.5733C3.2644 9.69463 4.66671 13.6549 6.92007 17.1333C8.96719 20.3549 11.6985 23.0862 14.9201 25.1333C18.3827 27.3788 22.3239 28.7808 26.4267 29.2266C26.7966 29.2601 27.1693 29.2159 27.5211 29.0969C27.8728 28.9779 28.1959 28.7868 28.4695 28.5358C28.7431 28.2848 28.9613 27.9793 29.1101 27.6391C29.2589 27.2989 29.3349 26.9313 29.3334 26.56Z" stroke="#05182A" stroke-opacity="0.9" stroke-width="2" stroke-linecap="round" stroke-linejoin="round"/>
</svg>
