<svg width="32" height="32" viewBox="0 0 32 32" fill="none" xmlns="http://www.w3.org/2000/svg">
<path d="M26.4799 6.03998C27.9761 5.58946 29.3898 4.90062 30.6666 3.99998C30.2144 5.85693 29.2541 7.5513 27.8933 8.89331C27.963 9.25811 27.9987 9.62858 27.9999 9.99998C27.9999 25.3333 13.3333 32 1.33325 25.3333C4.64946 25.4652 7.92062 24.5306 10.6666 22.6666C-1.33341 17.3333 3.99992 5.33331 3.99992 5.33331C5.34701 7.25149 7.14758 8.80675 9.24126 9.86057C11.335 10.9144 13.6568 11.4341 15.9999 11.3733V10.04C15.9835 8.81643 16.3433 7.61736 17.0306 6.60494C17.7178 5.59251 18.6995 4.81559 19.8427 4.37925C20.9859 3.94291 22.2356 3.86819 23.4226 4.16521C24.6097 4.46224 25.6769 5.11666 26.4799 6.03998Z" stroke="#05182A" stroke-opacity="0.9" stroke-width="2" stroke-linecap="round" stroke-linejoin="round"/>
</svg>
